{"title":"Blade.Runner.The.Final.Cut.1982.1080p.BluRay.x264-CULTHD","uid":14460057,"size":8749191582,"categoryP":"other","categoryS":"other","magnet":"?xt=urn:btih:658d611699f737ebec8df8303a0a5110e13a2fd2&amp;dn=Blade.Runner.The.Final.Cut.1982.1080p.BluRay.x264-CULTHD&amp;tr=udp%3A%2F%2Ftracker.leechers-paradise.org%3A6969&amp;tr=udp%3A%2F%2Fzer0day.ch%3A1337&amp;tr=udp%3A%2F%2Fopen.demonii.com%3A1337&amp;tr=udp%3A%2F%2Ftracker.coppersurfer.tk%3A6969&amp;tr=udp%3A%2F%2Fexodus.desync.com%3A6969","seeders":1,"leechers":1,"uploader":null,"files":90,"time":1461809624,"description":"IMDB Link: http://www.imdb.com/title/tt0083658\r\n\r\nIMBD Storyline:\r\nIn the futuristic year of 2019, Los Angeles has become a dark and depressing metropolis, filled with urban decay. Rick Deckard, an ex-cop, is a &quot;Blade Runner&quot;. Blade runners are people assigned to assassinate &quot;replicants&quot;. The replicants are androids that look like real human beings. When four replicants commit a bloody mutiny on the Off World colony, Deckard is called out of retirement to track down the androids. As he tracks the replicants, eliminating them one by one, he soon comes across another replicant, Rachel, who evokes human emotion, despite the fact that she's a replicant herself. As Deckard closes in on the leader of the replicant group, his true hatred toward artificial intelligence makes him question his own identity in this future world, including what's human and what's not human.\r\n\r\nFile Specs:\r\nComplete name                            : Blade.Runner.The.Final.Cut.1982.1080p.BluRay.x264-CULTHD.mkv\r\nFormat                                   : Matroska\r\nFormat version                           : Version 1\r\nFile size                                : 7.97 GiB\r\nDuration                                 : 1h 57mn\r\nOverall bit rate mode                    : Variable\r\nOverall bit rate                         : 9 705 Kbps\r\nEncoded date                             : UTC 2008-09-02 18:33:52\r\nWriting application                      : mkvmerge v2.2.0 ('Turn It On Again') built on Mar  4 2008 12:58:26\r\nWriting library                          : libebml v0.7.7 + libmatroska v0.8.1\r\n\r\nVideo\r\nID                                       : 1\r\nFormat                                   : AVC\r\nFormat/Info                              : Advanced Video Codec\r\nFormat profile                           :   \r\nFormat settings, CABAC                   : Yes\r\nFormat settings, ReFrames                : 3 frames\r\nCodec ID                                 : V_MPEG4/ISO/AVC\r\nDuration                                 : 1h 57mn\r\nBit rate mode                            : Variable\r\nBit rate                                 : 9 059 Kbps\r\nMaximum bit rate                         : 38.0 Mbps\r\nWidth                                    : 1 920 pixels\r\nHeight                                   : 800 pixels\r\nDisplay aspect ratio                     : 2.40:1\r\nFrame rate mode                          : Constant\r\nFrame rate                               : 23.976 fps\r\nColor space                              : YUV\r\nChroma subsampling                       : 4:2:0\r\nBit depth                                : 8 bits\r\nScan type                                : Progressive\r\nBits/(Pixel*Frame)                       : 0.246\r\nStream size                              : 7.29 GiB (91%)\r\nWriting library                          : x264 core 61 r956M 7b71d58\r\nEncoding settings                        : cabac=1 / ref=3 / deblock=1:0:0 / analyse=0x3:0x113 / me=hex / subme=6 / psy_rd=1.0:0.0 / brdo=0 / mixed_ref=1 / me_range=12 / chroma_me=1 / trellis=0 / 8x8dct=1 / cqm=0 / deadzone=21,11 / chroma_qp_offset=-2 / threads=3 / nr=0 / decimate=1 / mbaff=0 / bframes=3 / b_pyramid=0 / b_adapt=1 / b_bias=0 / direct=3 / wpredb=1 / bime=1 / keyint=24 / keyint_min=1 / scenecut=40(pre) / rc=2pass / bitrate=9059 / ratetol=1.0 / qcomp=1.00 / qpmin=10 / qpmax=51 / qpstep=4 / cplxblur=20.0 / qblur=0.5 / vbv_maxrate=38000 / vbv_bufsize=30000 / ip_ratio=1.10 / pb_ratio=1.10 / aq=2:1.00\r\nLanguage                                 : English\r\nDefault                                  : Yes\r\nForced                                   : No\r\n\r\nAudio\r\nID                                       : 2\r\nFormat                                   : AC-3\r\nFormat/Info                              : Audio Coding 3\r\nMode extension                           : CM (complete main)\r\nFormat settings, Endianness              : Big\r\nCodec ID                                 : A_AC3\r\nDuration                                 : 1h 57mn\r\nBit rate mode                            : Constant\r\nBit rate                                 : 640 Kbps\r\nChannel(s)                               : 6 channels\r\nChannel positions                        : Front: L C R, Side: L R, LFE\r\nSampling rate                            : 48.0 KHz\r\nFrame rate                               : 31.250 fps (1536 spf)\r\nCompression mode                         : Lossy\r\nStream size                              : 538 MiB (7%)\r\nLanguage                                 : English\r\nDefault                                  : Yes\r\nForced                                   : No\r\n\r\n\r\nAudio Language: English\r\nSubtitle Languages: English, Danish, German, Dutch, Norwegian, Swedish","torrent":{"xt":"urn:btih:658d611699f737ebec8df8303a0a5110e13a2fd2","amp;dn":"Blade.Runner.The.Final.Cut.1982.1080p.BluRay.x264-CULTHD","amp;tr":["udp%3A%2F%2Ftracker.leechers-paradise.org%3A6969","udp%3A%2F%2Fzer0day.ch%3A1337","udp%3A%2F%2Fopen.demonii.com%3A1337","udp%3A%2F%2Ftracker.coppersurfer.tk%3A6969","udp%3A%2F%2Fexodus.desync.com%3A6969"],"infoHash":"658d611699f737ebec8df8303a0a5110e13a2fd2","infoHashBuffer":{"type":"Buffer","data":[101,141,97,22,153,247,55,235,236,141,248,48,58,10,81,16,225,58,47,210]},"announce":[],"urlList":[]}}